<svg class="main-svg" xmlns="http://www.w3.org/2000/svg" xmlns:xlink="http://www.w3.org/1999/xlink" width="700" height="500" style="" viewBox="0 0 700 500"><rect x="0" y="0" width="700" height="500" style="fill: rgb(255, 255, 255); fill-opacity: 1;"/><defs id="defs-addfd0"><g class="clips"><clipPath id="clipaddfd0xyplot" class="plotclip"><rect width="531" height="429"/></clipPath><clipPath class="axesclip" id="clipaddfd0x"><rect x="69" y="0" width="531" height="500"/></clipPath><clipPath class="axesclip" id="clipaddfd0y"><rect x="0" y="30" width="700" height="429"/></clipPath><clipPath class="axesclip" id="clipaddfd0xy"><rect x="69" y="30" width="531" height="429"/></clipPath></g><g class="gradients"/><g class="patterns"/></defs><g class="bglayer"><rect class="bg" x="69" y="30" width="531" height="429" style="fill: rgb(229, 236, 246); fill-opacity: 1; stroke-width: 0;"/></g><g class="layer-below"><g class="imagelayer"/><g class="shapelayer"/></g><g class="cartesianlayer"><g class="subplot xy"><g class="layer-subplot"><g class="shapelayer"/><g class="imagelayer"/></g><g class="minor-gridlayer"><g class="x"/><g class="y"/></g><g class="gridlayer"><g class="x"><path class="xgrid crisp" transform="translate(182.57999999999998,0)" d="M0,30v429" style="stroke: rgb(255, 255, 255); stroke-opacity: 1; stroke-width: 1px;"/><path class="xgrid crisp" transform="translate(269.39,0)" d="M0,30v429" style="stroke: rgb(255, 255, 255); stroke-opacity: 1; stroke-width: 1px;"/><path class="xgrid crisp" transform="translate(356.2,0)" d="M0,30v429" style="stroke: rgb(255, 255, 255); stroke-opacity: 1; stroke-width: 1px;"/><path class="xgrid crisp" transform="translate(443.01,0)" d="M0,30v429" style="stroke: rgb(255, 255, 255); stroke-opacity: 1; stroke-width: 1px;"/><path class="xgrid crisp" transform="translate(529.8199999999999,0)" d="M0,30v429" style="stroke: rgb(255, 255, 255); stroke-opacity: 1; stroke-width: 1px;"/></g><g class="y"/></g><g class="zerolinelayer"><path class="xzl zl crisp" transform="translate(95.78,0)" d="M0,30v429" style="stroke: rgb(255, 255, 255); stroke-opacity: 1; stroke-width: 2px;"/></g><g class="layer-between"><g class="shapelayer"/><g class="imagelayer"/></g><path class="xlines-below"/><path class="ylines-below"/><g class="overlines-below"/><g class="xaxislayer-below"/><g class="yaxislayer-below"/><g class="overaxes-below"/><g class="overplot"><g class="xy" transform="translate(69,30)" clip-path="url(#clipaddfd0xyplot)"><g class="violinlayer mlayer"><g class="trace violins" style="opacity: 1;"><path class="violin" d="M28.34,106.11Q32.92,105.49 35.2,105.02C37.5,104.55 39.79,103.98 42.06,103.28C44.36,102.56 46.65,101.72 48.91,100.75C51.22,99.76 53.51,98.61 55.77,97.37C58.08,96.1 60.37,94.68 62.63,93.21C64.94,91.7 67.22,90.08 69.49,88.42C71.79,86.74 74.07,84.97 76.35,83.19C78.65,81.4 80.92,79.53 83.21,77.71C85.5,75.89 87.77,74.03 90.07,72.25C92.34,70.49 94.62,68.73 96.93,67.11C99.19,65.53 101.47,63.98 103.79,62.64C106.04,61.34 108.33,60.14 110.65,59.15C112.9,58.19 115.2,57.38 117.51,56.75C119.78,56.13 122.07,55.7 124.37,55.36C126.65,55.03 128.94,54.85 131.23,54.74C133.51,54.63 135.8,54.63 138.09,54.7C140.38,54.77 142.67,54.91 144.95,55.18C147.24,55.45 149.54,55.79 151.81,56.31C154.11,56.83 156.41,57.49 158.67,58.31C160.98,59.14 163.27,60.16 165.53,61.28C167.85,62.43 170.12,63.76 172.39,65.12C174.7,66.51 176.97,68.04 179.25,69.54C181.54,71.05 183.82,72.64 186.11,74.15C188.39,75.65 190.67,77.16 192.97,78.57C195.24,79.96 197.52,81.31 199.83,82.53C202.1,83.73 204.38,84.87 206.69,85.86C208.95,86.83 211.24,87.71 213.55,88.45C215.82,89.18 218.11,89.77 220.41,90.27C222.69,90.76 224.98,91.1 227.27,91.42C229.55,91.74 231.84,91.93 234.13,92.19C236.42,92.45 238.71,92.66 240.99,92.98C243.28,93.31 245.57,93.66 247.85,94.14C250.15,94.62 252.43,95.22 254.71,95.86C257.01,96.51 259.29,97.28 261.57,98.02C263.86,98.76 266.14,99.58 268.43,100.3C270.71,101.01 272.99,101.73 275.29,102.32C277.57,102.9 279.86,103.41 282.15,103.82C284.43,104.22 286.72,104.52 289.01,104.76C291.29,105 293.58,105.12 295.87,105.24C298.16,105.35 300.44,105.39 302.73,105.45C305.02,105.51 307.3,105.54 309.59,105.59C311.88,105.64 314.16,105.7 316.45,105.77C318.74,105.84 321.02,105.94 323.31,106.03C325.6,106.12 327.88,106.23 330.17,106.33C332.46,106.43 334.74,106.54 337.03,106.63C339.32,106.72 341.6,106.8 343.89,106.87Q346.18,106.94 350.75,107.04L350.75,107.46Q346.18,107.56 343.89,107.63C341.6,107.7 339.32,107.78 337.03,107.87C334.74,107.96 332.46,108.07 330.17,108.17C327.88,108.27 325.6,108.38 323.31,108.47C321.02,108.56 318.74,108.66 316.45,108.73C314.16,108.8 311.88,108.86 309.59,108.91C307.3,108.96 305.02,108.99 302.73,109.05C300.44,109.11 298.16,109.15 295.87,109.26C293.58,109.38 291.29,109.5 289.01,109.74C286.72,109.98 284.43,110.28 282.15,110.68C279.86,111.09 277.57,111.6 275.29,112.18C272.99,112.77 270.71,113.49 268.43,114.2C266.14,114.92 263.86,115.74 261.57,116.48C259.29,117.22 257.01,117.99 254.71,118.64C252.43,119.28 250.15,119.88 247.85,120.36C245.57,120.84 243.28,121.19 240.99,121.52C238.71,121.84 236.42,122.05 234.13,122.31C231.84,122.57 229.55,122.76 227.27,123.08C224.98,123.4 222.69,123.74 220.41,124.23C218.11,124.73 215.82,125.32 213.55,126.05C211.24,126.79 208.95,127.67 206.69,128.64C204.38,129.63 202.1,130.77 199.83,131.97C197.52,133.19 195.24,134.54 192.97,135.93C190.67,137.34 188.39,138.85 186.11,140.35C183.82,141.86 181.54,143.45 179.25,144.96C176.97,146.46 174.7,147.99 172.39,149.38C170.12,150.74 167.85,152.07 165.53,153.22C163.27,154.34 160.98,155.36 158.67,156.19C156.41,157.01 154.11,157.67 151.81,158.19C149.54,158.71 147.24,159.05 144.95,159.32C142.67,159.59 140.38,159.73 138.09,159.8C135.8,159.87 133.51,159.87 131.23,159.76C128.94,159.65 126.65,159.47 124.37,159.14C122.07,158.8 119.78,158.37 117.51,157.75C115.2,157.12 112.9,156.31 110.65,155.35C108.33,154.36 106.04,153.16 103.79,151.86C101.47,150.52 99.19,148.97 96.93,147.39C94.62,145.77 92.34,144.01 90.07,142.25C87.77,140.47 85.5,138.61 83.21,136.79C80.92,134.97 78.65,133.1 76.35,131.31C74.07,129.53 71.79,127.76 69.49,126.08C67.22,124.42 64.94,122.8 62.63,121.29C60.37,119.82 58.08,118.4 55.77,117.13C53.51,115.89 51.22,114.74 48.91,113.75C46.65,112.78 44.36,111.94 42.06,111.22C39.79,110.52 37.5,109.95 35.2,109.48Q32.92,109.01 28.34,108.39Z" style="vector-effect: none; stroke-width: 2px; stroke: rgb(99, 110, 250); stroke-opacity: 1; fill: rgb(99, 110, 250); fill-opacity: 0.5;"/><g class="points"><path class="point" transform="translate(308.9,107.25)" d="M3,0A3,3 0 1,1 0,-3A3,3 0 0,1 3,0Z" style="opacity: 1; stroke-width: 0px; fill: rgb(99, 110, 250); fill-opacity: 1;"/></g></g><g class="trace violins" style="opacity: 1;"><path class="violin" d="M26.55,321.34Q31.38,321.08 33.79,320.84C36.21,320.59 38.63,320.31 41.03,319.87C43.45,319.42 45.88,318.9 48.27,318.17C50.71,317.43 53.14,316.54 55.51,315.44C57.96,314.31 60.39,312.96 62.75,311.44C65.22,309.85 67.63,308.02 70,306.07C72.47,304.04 74.86,301.77 77.24,299.48C79.69,297.13 82.07,294.59 84.48,292.14C86.89,289.69 89.27,287.12 91.72,284.8C94.09,282.56 96.47,280.28 98.96,278.42C101.31,276.66 103.71,275.01 106.2,273.85C108.55,272.76 111,271.96 113.44,271.56C115.83,271.17 118.28,271.24 120.68,271.43C123.1,271.63 125.52,272.22 127.92,272.74C130.34,273.26 132.74,273.99 135.16,274.56C137.57,275.13 139.98,275.69 142.4,276.14C144.81,276.59 147.23,276.9 149.65,277.24C152.06,277.58 154.48,277.81 156.89,278.17C159.31,278.53 161.73,278.88 164.13,279.41C166.56,279.94 168.98,280.59 171.37,281.37C173.8,282.16 176.22,283.12 178.61,284.14C181.04,285.17 183.45,286.36 185.85,287.54C188.27,288.73 190.68,290.02 193.09,291.27C195.51,292.52 197.91,293.83 200.33,295.05C202.74,296.27 205.14,297.48 207.57,298.59C209.97,299.69 212.38,300.75 214.81,301.69C217.21,302.62 219.62,303.47 222.05,304.21C224.45,304.94 226.88,305.56 229.3,306.13C231.71,306.69 234.12,307.15 236.54,307.6C238.95,308.05 241.37,308.43 243.78,308.84C246.19,309.25 248.61,309.64 251.02,310.05C253.43,310.46 255.85,310.89 258.26,311.31C260.67,311.73 263.09,312.17 265.5,312.59C267.91,313 270.32,313.42 272.74,313.8C275.15,314.18 277.56,314.53 279.98,314.86C282.39,315.18 284.81,315.48 287.22,315.75C289.63,316.02 292.05,316.25 294.46,316.48C296.87,316.7 299.29,316.91 301.7,317.1C304.12,317.29 306.53,317.46 308.95,317.64C311.36,317.82 313.78,317.99 316.19,318.16C318.6,318.33 321.02,318.5 323.43,318.67C325.84,318.84 328.26,319.01 330.67,319.17C333.08,319.33 335.5,319.48 337.91,319.62C340.32,319.76 342.74,319.89 345.15,320.01C347.56,320.13 349.98,320.23 352.39,320.33C354.8,320.43 357.22,320.52 359.63,320.6C362.04,320.68 364.46,320.75 366.87,320.82C369.28,320.89 371.7,320.95 374.11,321C376.52,321.05 378.94,321.09 381.35,321.11C383.77,321.13 386.18,321.14 388.6,321.14C391.01,321.14 393.43,321.11 395.84,321.09C398.25,321.06 400.67,321.02 403.08,320.99C405.49,320.96 407.91,320.92 410.32,320.89C412.73,320.86 415.15,320.83 417.56,320.81C419.97,320.79 422.39,320.78 424.8,320.77C427.21,320.76 429.63,320.76 432.04,320.76C434.45,320.76 436.87,320.76 439.28,320.76C441.69,320.76 444.11,320.76 446.52,320.76C448.93,320.76 451.35,320.77 453.76,320.78C456.17,320.79 458.59,320.81 461,320.83C463.42,320.86 465.83,320.89 468.25,320.93C470.66,320.97 473.08,321.03 475.49,321.08C477.9,321.13 480.32,321.19 482.73,321.25C485.14,321.3 487.56,321.36 489.97,321.41C492.38,321.46 494.8,321.51 497.21,321.55Q499.62,321.59 504.45,321.64L504.45,321.86Q499.62,321.91 497.21,321.95C494.8,321.99 492.38,322.04 489.97,322.09C487.56,322.14 485.14,322.2 482.73,322.25C480.32,322.31 477.9,322.37 475.49,322.42C473.08,322.47 470.66,322.53 468.25,322.57C465.83,322.61 463.42,322.64 461,322.67C458.59,322.69 456.17,322.71 453.76,322.72C451.35,322.73 448.93,322.74 446.52,322.74C444.11,322.74 441.69,322.74 439.28,322.74C436.87,322.74 434.45,322.74 432.04,322.74C429.63,322.74 427.21,322.74 424.8,322.73C422.39,322.72 419.97,322.71 417.56,322.69C415.15,322.67 412.73,322.64 410.32,322.61C407.91,322.58 405.49,322.54 403.08,322.51C400.67,322.48 398.25,322.44 395.84,322.41C393.43,322.39 391.01,322.36 388.6,322.36C386.18,322.36 383.77,322.37 381.35,322.39C378.94,322.41 376.52,322.45 374.11,322.5C371.7,322.55 369.28,322.61 366.87,322.68C364.46,322.75 362.04,322.82 359.63,322.9C357.22,322.98 354.8,323.07 352.39,323.17C349.98,323.27 347.56,323.37 345.15,323.49C342.74,323.61 340.32,323.74 337.91,323.88C335.5,324.02 333.08,324.17 330.67,324.33C328.26,324.49 325.84,324.66 323.43,324.83C321.02,325 318.6,325.17 316.19,325.34C313.78,325.51 311.36,325.68 308.95,325.86C306.53,326.04 304.12,326.21 301.7,326.4C299.29,326.59 296.87,326.8 294.46,327.02C292.05,327.25 289.63,327.48 287.22,327.75C284.81,328.02 282.39,328.32 279.98,328.64C277.56,328.97 275.15,329.32 272.74,329.7C270.32,330.08 267.91,330.5 265.5,330.91C263.09,331.33 260.67,331.77 258.26,332.19C255.85,332.61 253.43,333.04 251.02,333.45C248.61,333.86 246.19,334.25 243.78,334.66C241.37,335.07 238.95,335.45 236.54,335.9C234.12,336.35 231.71,336.81 229.3,337.37C226.88,337.94 224.45,338.56 222.05,339.29C219.62,340.03 217.21,340.88 214.81,341.81C212.38,342.75 209.97,343.81 207.57,344.91C205.14,346.02 202.74,347.23 200.33,348.45C197.91,349.67 195.51,350.98 193.09,352.23C190.68,353.48 188.27,354.77 185.85,355.96C183.45,357.14 181.04,358.33 178.61,359.36C176.22,360.38 173.8,361.34 171.37,362.13C168.98,362.91 166.56,363.56 164.13,364.09C161.73,364.62 159.31,364.97 156.89,365.33C154.48,365.69 152.06,365.92 149.65,366.26C147.23,366.6 144.81,366.91 142.4,367.36C139.98,367.81 137.57,368.37 135.16,368.94C132.74,369.51 130.34,370.24 127.92,370.76C125.52,371.28 123.1,371.87 120.68,372.07C118.28,372.26 115.83,372.33 113.44,371.94C111,371.54 108.55,370.74 106.2,369.65C103.71,368.49 101.31,366.84 98.96,365.08C96.47,363.22 94.09,360.94 91.72,358.7C89.27,356.38 86.89,353.81 84.48,351.36C82.07,348.91 79.69,346.37 77.24,344.02C74.86,341.73 72.47,339.46 70,337.43C67.63,335.48 65.22,333.65 62.75,332.06C60.39,330.54 57.96,329.19 55.51,328.06C53.14,326.96 50.71,326.07 48.27,325.33C45.88,324.6 43.45,324.08 41.03,323.63C38.63,323.19 36.21,322.91 33.79,322.66Q31.38,322.42 26.55,322.16Z" style="vector-effect: none; stroke-width: 2px; stroke: rgb(239, 85, 59); stroke-opacity: 1; fill: rgb(239, 85, 59); fill-opacity: 0.5;"/><g class="points"><path class="point" transform="translate(308.9,321.75)" d="M3,0A3,3 0 1,1 0,-3A3,3 0 0,1 3,0Z" style="opacity: 1; stroke-width: 0px; fill: rgb(239, 85, 59); fill-opacity: 1;"/><path class="point" transform="translate(317.59,321.75)" d="M3,0A3,3 0 1,1 0,-3A3,3 0 0,1 3,0Z" style="opacity: 1; stroke-width: 0px; fill: rgb(239, 85, 59); fill-opacity: 1;"/><path class="point" transform="translate(318.89,321.75)" d="M3,0A3,3 0 1,1 0,-3A3,3 0 0,1 3,0Z" style="opacity: 1; stroke-width: 0px; fill: rgb(239, 85, 59); fill-opacity: 1;"/><path class="point" transform="translate(355.78,321.75)" d="M3,0A3,3 0 1,1 0,-3A3,3 0 0,1 3,0Z" style="opacity: 1; stroke-width: 0px; fill: rgb(239, 85, 59); fill-opacity: 1;"/><path class="point" transform="translate(417.42,321.75)" d="M3,0A3,3 0 1,1 0,-3A3,3 0 0,1 3,0Z" style="opacity: 1; stroke-width: 0px; fill: rgb(239, 85, 59); fill-opacity: 1;"/><path class="point" transform="translate(460.82,321.75)" d="M3,0A3,3 0 1,1 0,-3A3,3 0 0,1 3,0Z" style="opacity: 1; stroke-width: 0px; fill: rgb(239, 85, 59); fill-opacity: 1;"/></g></g></g></g></g><path class="xlines-above crisp" d="M0,0" style="fill: none;"/><path class="ylines-above crisp" d="M0,0" style="fill: none;"/><g class="overlines-above"/><g class="xaxislayer-above"><g class="xtick"><text text-anchor="middle" x="0" y="472" transform="translate(95.78,0)" style="font-family: 'Open Sans', verdana, arial, sans-serif; font-size: 12px; fill: rgb(42, 63, 95); fill-opacity: 1; white-space: pre; opacity: 1;">0</text></g><g class="xtick"><text text-anchor="middle" x="0" y="472" style="font-family: 'Open Sans', verdana, arial, sans-serif; font-size: 12px; fill: rgb(42, 63, 95); fill-opacity: 1; white-space: pre; opacity: 1;" transform="translate(182.57999999999998,0)">2</text></g><g class="xtick"><text text-anchor="middle" x="0" y="472" style="font-family: 'Open Sans', verdana, arial, sans-serif; font-size: 12px; fill: rgb(42, 63, 95); fill-opacity: 1; white-space: pre; opacity: 1;" transform="translate(269.39,0)">4</text></g><g class="xtick"><text text-anchor="middle" x="0" y="472" style="font-family: 'Open Sans', verdana, arial, sans-serif; font-size: 12px; fill: rgb(42, 63, 95); fill-opacity: 1; white-space: pre; opacity: 1;" transform="translate(356.2,0)">6</text></g><g class="xtick"><text text-anchor="middle" x="0" y="472" style="font-family: 'Open Sans', verdana, arial, sans-serif; font-size: 12px; fill: rgb(42, 63, 95); fill-opacity: 1; white-space: pre; opacity: 1;" transform="translate(443.01,0)">8</text></g><g class="xtick"><text text-anchor="middle" x="0" y="472" style="font-family: 'Open Sans', verdana, arial, sans-serif; font-size: 12px; fill: rgb(42, 63, 95); fill-opacity: 1; white-space: pre; opacity: 1;" transform="translate(529.8199999999999,0)">10</text></g></g><g class="yaxislayer-above"><g class="ytick"><text text-anchor="end" x="68" y="4.199999999999999" transform="translate(0,351.75)" style="font-family: 'Open Sans', verdana, arial, sans-serif; font-size: 12px; fill: rgb(42, 63, 95); fill-opacity: 1; white-space: pre; opacity: 1;">Male</text></g><g class="ytick"><text text-anchor="end" x="68" y="4.199999999999999" transform="translate(0,137.25)" style="font-family: 'Open Sans', verdana, arial, sans-serif; font-size: 12px; fill: rgb(42, 63, 95); fill-opacity: 1; white-space: pre; opacity: 1;">Female</text></g></g><g class="overaxes-above"/></g></g><g class="polarlayer"/><g class="smithlayer"/><g class="ternarylayer"/><g class="geolayer"/><g class="funnelarealayer"/><g class="pielayer"/><g class="iciclelayer"/><g class="treemaplayer"/><g class="sunburstlayer"/><g class="glimages"/><defs id="topdefs-addfd0"><g class="clips"/><clipPath id="legendaddfd0"><rect width="89" height="67" x="0" y="0"/></clipPath></defs><g class="layer-above"><g class="imagelayer"/><g class="shapelayer"/></g><g class="infolayer"><g class="legend" pointer-events="all" transform="translate(610.62,30)"><rect class="bg" shape-rendering="crispEdges" style="stroke: rgb(68, 68, 68); stroke-opacity: 1; fill: rgb(255, 255, 255); fill-opacity: 1; stroke-width: 0px;" width="89" height="67" x="0" y="0"/><g class="scrollbox" transform="" clip-path="url(#legendaddfd0)"><text class="legendtitletext" text-anchor="start" x="2" y="18.2" style="font-family: 'Open Sans', verdana, arial, sans-serif; font-size: 14px; fill: rgb(42, 63, 95); fill-opacity: 1; white-space: pre;">sex</text><g class="groups" transform=""><g class="traces" transform="translate(0,32.7)" style="opacity: 1;"><text class="legendtext" text-anchor="start" x="40" y="4.680000000000001" style="font-family: 'Open Sans', verdana, arial, sans-serif; font-size: 12px; fill: rgb(42, 63, 95); fill-opacity: 1; white-space: pre;">Female</text><g class="layers" style="opacity: 1;"><g class="legendfill"/><g class="legendlines"/><g class="legendsymbols"><g class="legendpoints"><path class="legendbox" d="M6,6H-6V-6H6Z" transform="translate(20,0)" style="stroke-width: 2px; fill: rgb(99, 110, 250); fill-opacity: 0.5; stroke: rgb(99, 110, 250); stroke-opacity: 1;"/></g></g></g><rect class="legendtoggle" x="0" y="-9.5" width="83.375" height="19" style="fill: rgb(0, 0, 0); fill-opacity: 0;"/></g></g><g class="groups" transform=""><g class="traces" transform="translate(0,51.7)" style="opacity: 1;"><text class="legendtext" text-anchor="start" x="40" y="4.680000000000001" style="font-family: 'Open Sans', verdana, arial, sans-serif; font-size: 12px; fill: rgb(42, 63, 95); fill-opacity: 1; white-space: pre;">Male</text><g class="layers" style="opacity: 1;"><g class="legendfill"/><g class="legendlines"/><g class="legendsymbols"><g class="legendpoints"><path class="legendbox" d="M6,6H-6V-6H6Z" transform="translate(20,0)" style="stroke-width: 2px; fill: rgb(239, 85, 59); fill-opacity: 0.5; stroke: rgb(239, 85, 59); stroke-opacity: 1;"/></g></g></g><rect class="legendtoggle" x="0" y="-9.5" width="83.375" height="19" style="fill: rgb(0, 0, 0); fill-opacity: 0;"/></g></g></g><rect class="scrollbar" rx="20" ry="3" width="0" height="0" style="fill: rgb(128, 139, 164); fill-opacity: 1;" x="0" y="0"/></g><g class="g-gtitle"/><g class="g-xtitle" transform="translate(0,-2.3000000000000114)"><text class="xtitle" x="334.5" y="499.3" text-anchor="middle" style="opacity: 1; font-family: 'Open Sans', verdana, arial, sans-serif; font-size: 14px; fill: rgb(42, 63, 95); fill-opacity: 1; white-space: pre;">tip</text></g><g class="g-ytitle" transform="translate(8.775390625,0)"><text class="ytitle" transform="rotate(-90,5.225000000000001,244.5)" x="5.225000000000001" y="244.5" text-anchor="middle" style="opacity: 1; font-family: 'Open Sans', verdana, arial, sans-serif; font-size: 14px; fill: rgb(42, 63, 95); fill-opacity: 1; white-space: pre;">sex</text></g></g></svg>